<mxfile host="app.diagrams.net" modified="2023-04-29T15:02:31.126Z" agent="Mozilla/5.0 (Windows NT 10.0; Win64; x64; rv:102.0) Gecko/20100101 Firefox/102.0" version="21.2.3" etag="GYKhuGFoIl-NnL9pQbBj" type="github">
  <diagram name="Σελίδα-1" id="zE5FkOxV_g-_zzO5hvtM">
    <mxGraphModel>
      <root>
        <mxCell id="0" />
        <mxCell id="1" parent="0" />
      </root>
    </mxGraphModel>
  </diagram>
</mxfile>
